<svg width="121" height="40" viewBox="0 0 121 40" fill="none" xmlns="http://www.w3.org/2000/svg">
<g clip-path="url(#clip0_103_3073)">
<path d="M0 15.3814C0 15.1684 0.0555584 15.0064 0.163751 14.9013C0.271944 14.7933 0.438619 14.7422 0.657928 14.7422H5.52075C5.76052 14.7422 5.93597 14.7962 6.04709 14.9013C6.15821 15.0093 6.21084 15.1684 6.21084 15.3814V38.9797C6.21084 39.2127 6.15528 39.3831 6.04709 39.4911C5.93597 39.5991 5.76052 39.6502 5.52075 39.6502H0.660852C0.441543 39.6502 0.274868 39.5962 0.166675 39.4911C0.0555584 39.386 0.00292412 39.2155 0.00292412 38.9797V15.3814H0Z" fill="#242062"/>
<path d="M25.7265 25.5892C25.7879 25.4131 25.8727 25.2824 25.9809 25.1943C26.0891 25.1062 26.247 25.0636 26.4458 25.0636H43.8882C44.1075 25.0636 44.2742 25.1176 44.3824 25.2227C44.4906 25.3307 44.5461 25.4898 44.5461 25.7029V31.9164C44.5461 34.6382 43.2859 36.6667 40.7623 37.9992C38.2417 39.3317 34.4082 39.9965 29.2647 39.9965C26.1212 39.9965 23.3901 39.7436 21.0684 39.2379C18.7466 38.7322 16.8255 37.9594 15.3049 36.9196C13.7844 35.8797 12.6527 34.5558 11.9129 32.9534C11.1731 31.3482 10.8018 29.4474 10.8018 27.2513C10.8018 25.0551 11.1877 23.0862 11.9568 21.4611C12.7258 19.8388 13.9393 18.5006 15.5885 17.4494C17.2407 16.3982 19.3402 15.6254 21.893 15.1311C24.4457 14.6339 27.5014 14.3867 31.063 14.3867C32.0835 14.3867 33.0777 14.4066 34.0515 14.4464C35.0223 14.4862 35.9434 14.5401 36.8118 14.6055C37.6832 14.6737 38.4961 14.7504 39.2593 14.8385C40.0196 14.9265 40.7009 15.0288 41.3004 15.1453C41.4992 15.1851 41.6542 15.2561 41.7653 15.3641C41.8735 15.472 41.9612 15.6226 42.0197 15.8158L42.8589 19.5774C42.9379 19.8502 42.9174 20.0434 42.7975 20.1599C42.6776 20.2763 42.4759 20.3161 42.1981 20.2763C41.3764 20.1599 40.4378 20.0576 39.3763 19.9695C38.3148 19.8814 37.23 19.8047 36.1188 19.7365C35.0077 19.6683 33.9462 19.6144 32.9374 19.5774C31.9256 19.5377 31.0513 19.5178 30.3115 19.5178C27.9108 19.5178 25.8844 19.6541 24.2323 19.9269C22.5801 20.1996 21.2438 20.64 20.2233 21.2537C19.2028 21.8674 18.463 22.6629 18.001 23.6459C17.5389 24.6289 17.3109 25.8279 17.3109 27.2484C17.3109 28.669 17.5448 29.8054 18.0156 30.7771C18.4864 31.7487 19.232 32.5386 20.2525 33.1409C21.273 33.7432 22.5889 34.1807 24.2001 34.4535C25.8113 34.7262 27.7588 34.8626 30.0396 34.8626C31.6215 34.8626 32.952 34.7944 34.031 34.658C35.1129 34.5217 35.9872 34.3029 36.6569 34.0018C37.3265 33.7006 37.8119 33.2972 38.1131 32.7914C38.4143 32.2857 38.5634 31.6635 38.5634 30.9248V29.0582H25.5949C25.3347 29.0582 25.1504 28.9957 25.0393 28.8679C24.9282 28.7429 24.9136 28.5525 24.9955 28.2996L25.7148 25.5864L25.7265 25.5892Z" fill="#242062"/>
<path d="M55.4179 39.0079C55.4179 39.221 55.3623 39.3886 55.2541 39.5051C55.143 39.6216 54.9793 39.6812 54.76 39.6812H49.8679C49.6486 39.6812 49.4819 39.6244 49.3737 39.5051C49.2626 39.3886 49.21 39.2238 49.21 39.0079V21.3305C49.21 20.2992 49.3942 19.3616 49.7655 18.5149C50.1369 17.6683 50.6603 16.941 51.3416 16.3273C52.023 15.7136 52.8388 15.2448 53.7891 14.9124C54.7395 14.5828 55.7951 14.4152 56.956 14.4152C58.1168 14.4152 59.2075 14.5459 60.1696 14.8101C61.1316 15.0715 61.9942 15.4863 62.7662 16.0489C63.5352 16.6142 64.2224 17.333 64.8219 18.2081C65.4213 19.0832 65.9418 20.123 66.3833 21.3305C66.5646 21.9726 66.9331 23.0266 67.4945 24.4955C68.0559 25.9643 68.746 27.8167 69.5648 30.0527C69.8835 30.9675 70.1847 31.7204 70.4654 32.3142C70.7461 32.908 71.0269 33.3825 71.3046 33.7433C71.5854 34.1041 71.8895 34.3513 72.2199 34.4877C72.5503 34.624 72.9246 34.6922 73.3457 34.6922C74.1264 34.6922 74.6908 34.3627 75.0417 33.7007C75.3926 33.0387 75.568 31.9704 75.568 30.4931V14.9976C75.568 14.7846 75.6236 14.6226 75.7318 14.5175C75.84 14.4095 76.0066 14.3584 76.2259 14.3584H81.118C81.3373 14.3584 81.504 14.4124 81.6122 14.5175C81.7204 14.6255 81.7759 14.7846 81.7759 14.9976V33.0614C81.7759 34.0928 81.5917 35.036 81.2203 35.8912C80.849 36.7464 80.3285 37.4822 79.6589 38.093C78.9892 38.7067 78.1763 39.1783 77.226 39.5079C76.2757 39.8375 75.22 40.0051 74.0592 40.0051C72.8983 40.0051 71.8017 39.8687 70.8309 39.596C69.8601 39.3232 68.9887 38.9056 68.2197 38.3431C67.4477 37.7805 66.7635 37.0589 66.164 36.1838C65.5646 35.3088 65.0441 34.2689 64.6025 33.0614C64.5207 32.7518 64.3832 32.3227 64.1815 31.7772C63.9826 31.2318 63.7458 30.5868 63.4768 29.8368C63.2077 29.0896 62.9007 28.2571 62.5615 27.3423C62.2223 26.4274 61.8509 25.4359 61.4503 24.3676C61.1287 23.4528 60.8363 22.6999 60.5643 22.1061C60.2924 21.5123 60.0146 21.0378 59.7251 20.677C59.4356 20.3162 59.1257 20.069 58.7952 19.9327C58.4648 19.7963 58.0788 19.7281 57.6402 19.7281C56.8595 19.7281 56.2951 20.0605 55.9442 20.7196C55.5933 21.3816 55.4179 22.4499 55.4179 23.9273V39.0079Z" fill="#242062"/>
<path d="M113.207 15.1481C113.406 15.1879 113.561 15.2589 113.672 15.3669C113.784 15.4749 113.857 15.6254 113.898 15.8186L114.769 19.5803C114.827 19.853 114.804 20.0434 114.693 20.1485C114.582 20.2565 114.389 20.2792 114.108 20.2224C113.307 20.086 112.412 19.9752 111.421 19.8871C110.43 19.799 109.438 19.7223 108.447 19.6541C107.456 19.586 106.514 19.5377 105.625 19.5092C104.733 19.4808 103.988 19.4666 103.388 19.4666C101.227 19.4666 99.4436 19.5149 98.043 19.6115C96.6423 19.7081 95.5311 19.8644 94.7095 20.0775C93.8878 20.2905 93.3146 20.5775 92.9842 20.9383C92.6538 21.2991 92.49 21.731 92.49 22.2367C92.49 22.9356 92.8556 23.4669 93.5866 23.8277C94.3176 24.1886 95.5019 24.4244 97.1453 24.5437L105.16 25.0096C107.04 25.1261 108.666 25.3591 110.038 25.7085C111.409 26.058 112.535 26.5353 113.415 27.1376C114.295 27.7399 114.947 28.4701 115.365 29.3253C115.787 30.1805 115.997 31.1834 115.997 32.3283C115.997 33.6693 115.661 34.8228 114.991 35.786C114.322 36.7491 113.269 37.5418 111.839 38.164C110.406 38.7862 108.582 39.2379 106.359 39.5192C104.137 39.8005 101.485 39.9425 98.4026 39.9425C96.2797 39.9425 94.3147 39.8686 92.5047 39.7237C90.6917 39.5788 89.1565 39.397 87.8962 39.1839C87.715 39.1442 87.5658 39.0731 87.4459 38.9652C87.326 38.8572 87.2442 38.718 87.2062 38.5418L86.3348 34.7802C86.2734 34.5075 86.2997 34.32 86.4108 34.212C86.519 34.104 86.7149 34.0699 86.9956 34.1097C87.8173 34.2461 88.7472 34.3626 89.7882 34.4592C90.8291 34.5558 91.8701 34.6382 92.9111 34.7063C93.9521 34.7745 94.9375 34.8228 95.8674 34.8512C96.7973 34.8797 97.5839 34.8939 98.2243 34.8939C100.464 34.8939 102.318 34.8456 103.777 34.749C105.236 34.6524 106.388 34.4961 107.231 34.283C108.073 34.0699 108.658 33.7858 108.988 33.4364C109.318 33.0869 109.482 32.6579 109.482 32.1522C109.482 31.4703 109.111 30.9163 108.371 30.4901C107.631 30.064 106.558 29.8111 105.157 29.7316L97.3207 29.294C95.3586 29.1775 93.6685 28.9503 92.2473 28.6093C90.8262 28.2684 89.6449 27.7968 88.7062 27.1944C87.7647 26.5921 87.0746 25.8676 86.636 25.021C86.1944 24.1743 85.9751 23.18 85.9751 22.0321C85.9751 20.6911 86.3055 19.5377 86.9664 18.5745C87.6272 17.6114 88.6565 16.8244 90.0572 16.2107C91.4578 15.597 93.2386 15.1425 95.3996 14.8385C97.5605 14.5373 100.151 14.3867 103.175 14.3867C105.178 14.3867 107.049 14.4606 108.789 14.6055C110.529 14.7504 112 14.9322 113.202 15.1453L113.207 15.1481Z" fill="#242062"/>
<path d="M78.7378 12.6741C78.7378 12.6741 79.0975 9.41251 80.5011 8.04878C81.9017 6.68505 85.2615 6.33559 85.2615 6.33559C85.2615 6.33559 81.9047 5.98613 80.5011 4.6224C79.0975 3.26151 78.7378 -0.00292969 78.7378 -0.00292969C78.7378 -0.00292969 78.3782 3.25867 76.9746 4.6224C75.5739 5.98613 72.2141 6.33559 72.2141 6.33559C72.2141 6.33559 75.571 6.68505 76.9746 8.04878C78.3782 9.40967 78.7378 12.6741 78.7378 12.6741Z" fill="#282460"/>
<path d="M0 15.3814C0 15.1684 0.0555584 15.0064 0.163751 14.9013C0.271944 14.7933 0.438619 14.7422 0.657928 14.7422H5.52075C5.76052 14.7422 5.93597 14.7962 6.04709 14.9013C6.15821 15.0093 6.21084 15.1684 6.21084 15.3814V38.9797C6.21084 39.2127 6.15528 39.3831 6.04709 39.4911C5.93597 39.5991 5.76052 39.6502 5.52075 39.6502H0.660852C0.441543 39.6502 0.274868 39.5962 0.166675 39.4911C0.0555584 39.386 0.00292412 39.2155 0.00292412 38.9797V15.3814H0Z" fill="url(#paint0_linear_103_3073)"/>
<path d="M25.7265 25.5892C25.7879 25.4131 25.8727 25.2824 25.9809 25.1943C26.0891 25.1062 26.247 25.0636 26.4458 25.0636H43.8882C44.1075 25.0636 44.2742 25.1176 44.3824 25.2227C44.4906 25.3307 44.5461 25.4898 44.5461 25.7029V31.9164C44.5461 34.6382 43.2859 36.6667 40.7623 37.9992C38.2417 39.3317 34.4082 39.9965 29.2647 39.9965C26.1212 39.9965 23.3901 39.7436 21.0684 39.2379C18.7466 38.7322 16.8255 37.9594 15.3049 36.9196C13.7844 35.8797 12.6527 34.5558 11.9129 32.9534C11.1731 31.3482 10.8018 29.4474 10.8018 27.2513C10.8018 25.0551 11.1877 23.0862 11.9568 21.4611C12.7258 19.8388 13.9393 18.5006 15.5885 17.4494C17.2407 16.3982 19.3402 15.6254 21.893 15.1311C24.4457 14.6339 27.5014 14.3867 31.063 14.3867C32.0835 14.3867 33.0777 14.4066 34.0515 14.4464C35.0223 14.4862 35.9434 14.5401 36.8118 14.6055C37.6832 14.6737 38.4961 14.7504 39.2593 14.8385C40.0196 14.9265 40.7009 15.0288 41.3004 15.1453C41.4992 15.1851 41.6542 15.2561 41.7653 15.3641C41.8735 15.472 41.9612 15.6226 42.0197 15.8158L42.8589 19.5774C42.9379 19.8502 42.9174 20.0434 42.7975 20.1599C42.6776 20.2763 42.4759 20.3161 42.1981 20.2763C41.3764 20.1599 40.4378 20.0576 39.3763 19.9695C38.3148 19.8814 37.23 19.8047 36.1188 19.7365C35.0077 19.6683 33.9462 19.6144 32.9374 19.5774C31.9256 19.5377 31.0513 19.5178 30.3115 19.5178C27.9108 19.5178 25.8844 19.6541 24.2323 19.9269C22.5801 20.1996 21.2438 20.64 20.2233 21.2537C19.2028 21.8674 18.463 22.6629 18.001 23.6459C17.5389 24.6289 17.3109 25.8279 17.3109 27.2484C17.3109 28.669 17.5448 29.8054 18.0156 30.7771C18.4864 31.7487 19.232 32.5386 20.2525 33.1409C21.273 33.7432 22.5889 34.1807 24.2001 34.4535C25.8113 34.7262 27.7588 34.8626 30.0396 34.8626C31.6215 34.8626 32.952 34.7944 34.031 34.658C35.1129 34.5217 35.9872 34.3029 36.6569 34.0018C37.3265 33.7006 37.8119 33.2972 38.1131 32.7914C38.4143 32.2857 38.5634 31.6635 38.5634 30.9248V29.0582H25.5949C25.3347 29.0582 25.1504 28.9957 25.0393 28.8679C24.9282 28.7429 24.9136 28.5525 24.9955 28.2996L25.7148 25.5864L25.7265 25.5892Z" fill="url(#paint1_linear_103_3073)"/>
<path d="M55.4179 39.0079C55.4179 39.221 55.3623 39.3886 55.2541 39.5051C55.143 39.6216 54.9793 39.6812 54.76 39.6812H49.8679C49.6486 39.6812 49.4819 39.6244 49.3737 39.5051C49.2626 39.3886 49.21 39.2238 49.21 39.0079V21.3305C49.21 20.2992 49.3942 19.3616 49.7655 18.5149C50.1369 17.6683 50.6603 16.941 51.3416 16.3273C52.023 15.7136 52.8388 15.2448 53.7891 14.9124C54.7395 14.5828 55.7951 14.4152 56.956 14.4152C58.1168 14.4152 59.2075 14.5459 60.1696 14.8101C61.1316 15.0715 61.9942 15.4863 62.7662 16.0489C63.5352 16.6142 64.2224 17.333 64.8219 18.2081C65.4213 19.0832 65.9418 20.123 66.3833 21.3305C66.5646 21.9726 66.9331 23.0266 67.4945 24.4955C68.0559 25.9643 68.746 27.8167 69.5648 30.0527C69.8835 30.9675 70.1847 31.7204 70.4654 32.3142C70.7461 32.908 71.0269 33.3825 71.3046 33.7433C71.5854 34.1041 71.8895 34.3513 72.2199 34.4877C72.5503 34.624 72.9246 34.6922 73.3457 34.6922C74.1264 34.6922 74.6908 34.3627 75.0417 33.7007C75.3926 33.0387 75.568 31.9704 75.568 30.4931V14.9976C75.568 14.7846 75.6236 14.6226 75.7318 14.5175C75.84 14.4095 76.0066 14.3584 76.2259 14.3584H81.118C81.3373 14.3584 81.504 14.4124 81.6122 14.5175C81.7204 14.6255 81.7759 14.7846 81.7759 14.9976V33.0614C81.7759 34.0928 81.5917 35.036 81.2203 35.8912C80.849 36.7464 80.3285 37.4822 79.6589 38.093C78.9892 38.7067 78.1763 39.1783 77.226 39.5079C76.2757 39.8375 75.22 40.0051 74.0592 40.0051C72.8983 40.0051 71.8017 39.8687 70.8309 39.596C69.8601 39.3232 68.9887 38.9056 68.2197 38.3431C67.4477 37.7805 66.7635 37.0589 66.164 36.1838C65.5646 35.3088 65.0441 34.2689 64.6025 33.0614C64.5207 32.7518 64.3832 32.3227 64.1815 31.7772C63.9826 31.2318 63.7458 30.5868 63.4768 29.8368C63.2077 29.0896 62.9007 28.2571 62.5615 27.3423C62.2223 26.4274 61.8509 25.4359 61.4503 24.3676C61.1287 23.4528 60.8363 22.6999 60.5643 22.1061C60.2924 21.5123 60.0146 21.0378 59.7251 20.677C59.4356 20.3162 59.1257 20.069 58.7952 19.9327C58.4648 19.7963 58.0788 19.7281 57.6402 19.7281C56.8595 19.7281 56.2951 20.0605 55.9442 20.7196C55.5933 21.3816 55.4179 22.4499 55.4179 23.9273V39.0079Z" fill="url(#paint2_linear_103_3073)"/>
<path d="M113.207 15.1481C113.406 15.1879 113.561 15.2589 113.672 15.3669C113.784 15.4749 113.857 15.6254 113.898 15.8186L114.769 19.5803C114.827 19.853 114.804 20.0434 114.693 20.1485C114.582 20.2565 114.389 20.2792 114.108 20.2224C113.307 20.086 112.412 19.9752 111.421 19.8871C110.43 19.799 109.438 19.7223 108.447 19.6541C107.456 19.586 106.514 19.5377 105.625 19.5092C104.733 19.4808 103.988 19.4666 103.388 19.4666C101.227 19.4666 99.4436 19.5149 98.043 19.6115C96.6423 19.7081 95.5311 19.8644 94.7095 20.0775C93.8878 20.2905 93.3146 20.5775 92.9842 20.9383C92.6538 21.2991 92.49 21.731 92.49 22.2367C92.49 22.9356 92.8556 23.4669 93.5866 23.8277C94.3176 24.1886 95.5019 24.4244 97.1453 24.5437L105.16 25.0096C107.04 25.1261 108.666 25.3591 110.038 25.7085C111.409 26.058 112.535 26.5353 113.415 27.1376C114.295 27.7399 114.947 28.4701 115.365 29.3253C115.787 30.1805 115.997 31.1834 115.997 32.3283C115.997 33.6693 115.661 34.8228 114.991 35.786C114.322 36.7491 113.269 37.5418 111.839 38.164C110.406 38.7862 108.582 39.2379 106.359 39.5192C104.137 39.8005 101.485 39.9425 98.4026 39.9425C96.2797 39.9425 94.3147 39.8686 92.5047 39.7237C90.6917 39.5788 89.1565 39.397 87.8962 39.1839C87.715 39.1442 87.5658 39.0731 87.4459 38.9652C87.326 38.8572 87.2442 38.718 87.2062 38.5418L86.3348 34.7802C86.2734 34.5075 86.2997 34.32 86.4108 34.212C86.519 34.104 86.7149 34.0699 86.9956 34.1097C87.8173 34.2461 88.7472 34.3626 89.7882 34.4592C90.8291 34.5558 91.8701 34.6382 92.9111 34.7063C93.9521 34.7745 94.9375 34.8228 95.8674 34.8512C96.7973 34.8797 97.5839 34.8939 98.2243 34.8939C100.464 34.8939 102.318 34.8456 103.777 34.749C105.236 34.6524 106.388 34.4961 107.231 34.283C108.073 34.0699 108.658 33.7858 108.988 33.4364C109.318 33.0869 109.482 32.6579 109.482 32.1522C109.482 31.4703 109.111 30.9163 108.371 30.4901C107.631 30.064 106.558 29.8111 105.157 29.7316L97.3207 29.294C95.3586 29.1775 93.6685 28.9503 92.2473 28.6093C90.8262 28.2684 89.6449 27.7968 88.7062 27.1944C87.7647 26.5921 87.0746 25.8676 86.636 25.021C86.1944 24.1743 85.9751 23.18 85.9751 22.0321C85.9751 20.6911 86.3055 19.5377 86.9664 18.5745C87.6272 17.6114 88.6565 16.8244 90.0572 16.2107C91.4578 15.597 93.2386 15.1425 95.3996 14.8385C97.5605 14.5373 100.151 14.3867 103.175 14.3867C105.178 14.3867 107.049 14.4606 108.789 14.6055C110.529 14.7504 112 14.9322 113.202 15.1453L113.207 15.1481Z" fill="url(#paint3_linear_103_3073)"/>
<path d="M78.7378 12.6741C78.7378 12.6741 79.0975 9.41251 80.5011 8.04878C81.9017 6.68505 85.2615 6.33559 85.2615 6.33559C85.2615 6.33559 81.9047 5.98613 80.5011 4.6224C79.0975 3.26151 78.7378 -0.00292969 78.7378 -0.00292969C78.7378 -0.00292969 78.3782 3.25867 76.9746 4.6224C75.5739 5.98613 72.2141 6.33559 72.2141 6.33559C72.2141 6.33559 75.571 6.68505 76.9746 8.04878C78.3782 9.40967 78.7378 12.6741 78.7378 12.6741Z" fill="url(#paint4_linear_103_3073)"/>
</g>
<defs>
<linearGradient id="paint0_linear_103_3073" x1="0" y1="19.9982" x2="116" y2="19.9982" gradientUnits="userSpaceOnUse">
<stop stop-color="#28ABE2"/>
<stop offset="0.76" stop-color="#C24E9C"/>
</linearGradient>
<linearGradient id="paint1_linear_103_3073" x1="4.45072e-05" y1="19.9979" x2="116" y2="19.9979" gradientUnits="userSpaceOnUse">
<stop stop-color="#28ABE2"/>
<stop offset="0.76" stop-color="#C24E9C"/>
</linearGradient>
<linearGradient id="paint2_linear_103_3073" x1="-0.000117567" y1="19.998" x2="116" y2="19.998" gradientUnits="userSpaceOnUse">
<stop stop-color="#28ABE2"/>
<stop offset="0.76" stop-color="#C24E9C"/>
</linearGradient>
<linearGradient id="paint3_linear_103_3073" x1="1.53348e-06" y1="19.9979" x2="116" y2="19.9979" gradientUnits="userSpaceOnUse">
<stop stop-color="#28ABE2"/>
<stop offset="0.76" stop-color="#C24E9C"/>
</linearGradient>
<linearGradient id="paint4_linear_103_3073" x1="-3.21123e-05" y1="19.9985" x2="116" y2="19.9985" gradientUnits="userSpaceOnUse">
<stop stop-color="#28ABE2"/>
<stop offset="0.76" stop-color="#C24E9C"/>
</linearGradient>
<clipPath id="clip0_103_3073">
<rect width="116" height="40" fill="white"/>
</clipPath>
</defs>
</svg>
